{
    "asset": {
        "version": "2.0",
        "generator": "Open Asset Import Library (assimp v5.0.5eb040c7)"
    },
    "accessors": [
        {
            "bufferView": 0,
            "byteOffset": 0,
            "componentType": 5126,
            "count": 2530,
            "type": "VEC3",
            "max": [
                3.495723009109497,
                4.223700046539307,
                3.4384920597076418
            ],
            "min": [
                -0.16692200303077699,
                0.4134620130062103,
                -3.667520046234131
            ]
        },
        {
            "bufferView": 1,
            "byteOffset": 0,
            "componentType": 5126,
            "count": 2530,
            "type": "VEC3",
            "max": [
                1.0,
                1.0,
                1.0
            ],
            "min": [
                -1.0,
                -1.0,
                -1.0
            ]
        },
        {
            "bufferView": 2,
            "byteOffset": 0,
            "componentType": 5126,
            "count": 2530,
            "type": "VEC2",
            "max": [
                0.7621340155601502,
                0.880611002445221
            ],
            "min": [
                0.3880949914455414,
                0.06363099813461304
            ]
        },
        {
            "bufferView": 3,
            "byteOffset": 0,
            "componentType": 5125,
            "count": 4530,
            "type": "SCALAR",
            "max": [
                2529
            ],
            "min": [
                0
            ]
        },
        {
            "bufferView": 4,
            "byteOffset": 0,
            "componentType": 5126,
            "count": 1024,
            "type": "VEC3",
            "max": [
                1.332632064819336,
                1.2130240201950074,
                -2.040060043334961
            ],
            "min": [
                0.12749500572681428,
                0.027354000136256219,
                -3.2257299423217775
            ]
        },
        {
            "bufferView": 5,
            "byteOffset": 0,
            "componentType": 5126,
            "count": 1024,
            "type": "VEC3",
            "max": [
                1.0,
                1.0,
                1.0
            ],
            "min": [
                -1.0,
                -1.0,
                -1.0
            ]
        },
        {
            "bufferView": 6,
            "byteOffset": 0,
            "componentType": 5126,
            "count": 1024,
            "type": "VEC2",
            "max": [
                0.6181179881095886,
                0.5409350395202637
            ],
            "min": [
                0.4606269896030426,
                0.37196099758148196
            ]
        },
        {
            "bufferView": 7,
            "byteOffset": 0,
            "componentType": 5125,
            "count": 1716,
            "type": "SCALAR",
            "max": [
                1023
            ],
            "min": [
                0
            ]
        },
        {
            "bufferView": 8,
            "byteOffset": 0,
            "componentType": 5126,
            "count": 1024,
            "type": "VEC3",
            "max": [
                3.197845935821533,
                1.2130240201950074,
                2.5838141441345217
            ],
            "min": [
                1.992709994316101,
                0.027354000136256219,
                1.398144006729126
            ]
        },
        {
            "bufferView": 9,
            "byteOffset": 0,
            "componentType": 5126,
            "count": 1024,
            "type": "VEC3",
            "max": [
                1.0,
                1.0,
                1.0
            ],
            "min": [
                -1.0,
                -1.0,
                -1.0
            ]
        },
        {
            "bufferView": 10,
            "byteOffset": 0,
            "componentType": 5126,
            "count": 1024,
            "type": "VEC2",
            "max": [
                0.6181179881095886,
                0.5409350395202637
            ],
            "min": [
                0.5590590238571167,
                0.37196099758148196
            ]
        },
        {
            "bufferView": 11,
            "byteOffset": 0,
            "componentType": 5125,
            "count": 1716,
            "type": "SCALAR",
            "max": [
                1023
            ],
            "min": [
                0
            ]
        },
        {
            "bufferView": 12,
            "byteOffset": 0,
            "componentType": 5126,
            "count": 1024,
            "type": "VEC3",
            "max": [
                3.197845935821533,
                1.2130240201950074,
                -0.8222609758377075
            ],
            "min": [
                1.992709994316101,
                0.027354000136256219,
                -2.0079309940338136
            ]
        },
        {
            "bufferView": 13,
            "byteOffset": 0,
            "componentType": 5126,
            "count": 1024,
            "type": "VEC3",
            "max": [
                1.0,
                1.0,
                1.0
            ],
            "min": [
                -1.0,
                -1.0,
                -1.0
            ]
        },
        {
            "bufferView": 14,
            "byteOffset": 0,
            "componentType": 5126,
            "count": 1024,
            "type": "VEC2",
            "max": [
                0.6181179881095886,
                0.5409350395202637
            ],
            "min": [
                0.4606269896030426,
                0.37196099758148196
            ]
        },
        {
            "bufferView": 15,
            "byteOffset": 0,
            "componentType": 5125,
            "count": 1716,
            "type": "SCALAR",
            "max": [
                1023
            ],
            "min": [
                0
            ]
        },
        {
            "bufferView": 16,
            "byteOffset": 0,
            "componentType": 5126,
            "count": 1024,
            "type": "VEC3",
            "max": [
                3.197845935821533,
                1.2130240201950074,
                -2.040060043334961
            ],
            "min": [
                1.992709994316101,
                0.027354000136256219,
                -3.2257299423217775
            ]
        },
        {
            "bufferView": 17,
            "byteOffset": 0,
            "componentType": 5126,
            "count": 1024,
            "type": "VEC3",
            "max": [
                1.0,
                1.0,
                1.0
            ],
            "min": [
                -1.0,
                -1.0,
                -1.0
            ]
        },
        {
            "bufferView": 18,
            "byteOffset": 0,
            "componentType": 5126,
            "count": 1024,
            "type": "VEC2",
            "max": [
                0.6181179881095886,
                0.5409350395202637
            ],
            "min": [
                0.4606269896030426,
                0.37196099758148196
            ]
        },
        {
            "bufferView": 19,
            "byteOffset": 0,
            "componentType": 5125,
            "count": 1716,
            "type": "SCALAR",
            "max": [
                1023
            ],
            "min": [
                0
            ]
        },
        {
            "bufferView": 20,
            "byteOffset": 0,
            "componentType": 5126,
            "count": 1024,
            "type": "VEC3",
            "max": [
                1.332632064819336,
                1.2130240201950074,
                2.5838141441345217
            ],
            "min": [
                0.12749600410461427,
                0.027354000136256219,
                1.398144006729126
            ]
        },
        {
            "bufferView": 21,
            "byteOffset": 0,
            "componentType": 5126,
            "count": 1024,
            "type": "VEC3",
            "max": [
                1.0,
                1.0,
                1.0
            ],
            "min": [
                -1.0,
                -1.0,
                -1.0
            ]
        },
        {
            "bufferView": 22,
            "byteOffset": 0,
            "componentType": 5126,
            "count": 1024,
            "type": "VEC2",
            "max": [
                0.6181179881095886,
                0.5409350395202637
            ],
            "min": [
                0.4606269896030426,
                0.37196099758148196
            ]
        },
        {
            "bufferView": 23,
            "byteOffset": 0,
            "componentType": 5125,
            "count": 1716,
            "type": "SCALAR",
            "max": [
                1023
            ],
            "min": [
                0
            ]
        },
        {
            "bufferView": 24,
            "byteOffset": 0,
            "componentType": 5126,
            "count": 1024,
            "type": "VEC3",
            "max": [
                1.332632064819336,
                1.2130240201950074,
                -0.8222609758377075
            ],
            "min": [
                0.12749500572681428,
                0.027354000136256219,
                -2.0079309940338136
            ]
        },
        {
            "bufferView": 25,
            "byteOffset": 0,
            "componentType": 5126,
            "count": 1024,
            "type": "VEC3",
            "max": [
                1.0,
                1.0,
                1.0
            ],
            "min": [
                -1.0,
                -1.0,
                -1.0
            ]
        },
        {
            "bufferView": 26,
            "byteOffset": 0,
            "componentType": 5126,
            "count": 1024,
            "type": "VEC2",
            "max": [
                0.6181179881095886,
                0.5409350395202637
            ],
            "min": [
                0.4606269896030426,
                0.37196099758148196
            ]
        },
        {
            "bufferView": 27,
            "byteOffset": 0,
            "componentType": 5125,
            "count": 1716,
            "type": "SCALAR",
            "max": [
                1023
            ],
            "min": [
                0
            ]
        }
    ],
    "buffers": [
        {
            "byteLength": 336872,
            "uri": "result.bin"
        }
    ],
    "bufferViews": [
        {
            "buffer": 0,
            "byteOffset": 0,
            "byteLength": 30360,
            "target": 34962
        },
        {
            "buffer": 0,
            "byteOffset": 30360,
            "byteLength": 30360,
            "target": 34962
        },
        {
            "buffer": 0,
            "byteOffset": 60720,
            "byteLength": 20240,
            "target": 34962
        },
        {
            "buffer": 0,
            "byteOffset": 80960,
            "byteLength": 18120,
            "target": 34963
        },
        {
            "buffer": 0,
            "byteOffset": 99080,
            "byteLength": 12288,
            "target": 34962
        },
        {
            "buffer": 0,
            "byteOffset": 111368,
            "byteLength": 12288,
            "target": 34962
        },
        {
            "buffer": 0,
            "byteOffset": 123656,
            "byteLength": 8192,
            "target": 34962
        },
        {
            "buffer": 0,
            "byteOffset": 131848,
            "byteLength": 6864,
            "target": 34963
        },
        {
            "buffer": 0,
            "byteOffset": 138712,
            "byteLength": 12288,
            "target": 34962
        },
        {
            "buffer": 0,
            "byteOffset": 151000,
            "byteLength": 12288,
            "target": 34962
        },
        {
            "buffer": 0,
            "byteOffset": 163288,
            "byteLength": 8192,
            "target": 34962
        },
        {
            "buffer": 0,
            "byteOffset": 171480,
            "byteLength": 6864,
            "target": 34963
        },
        {
            "buffer": 0,
            "byteOffset": 178344,
            "byteLength": 12288,
            "target": 34962
        },
        {
            "buffer": 0,
            "byteOffset": 190632,
            "byteLength": 12288,
            "target": 34962
        },
        {
            "buffer": 0,
            "byteOffset": 202920,
            "byteLength": 8192,
            "target": 34962
        },
        {
            "buffer": 0,
            "byteOffset": 211112,
            "byteLength": 6864,
            "target": 34963
        },
        {
            "buffer": 0,
            "byteOffset": 217976,
            "byteLength": 12288,
            "target": 34962
        },
        {
            "buffer": 0,
            "byteOffset": 230264,
            "byteLength": 12288,
            "target": 34962
        },
        {
            "buffer": 0,
            "byteOffset": 242552,
            "byteLength": 8192,
            "target": 34962
        },
        {
            "buffer": 0,
            "byteOffset": 250744,
            "byteLength": 6864,
            "target": 34963
        },
        {
            "buffer": 0,
            "byteOffset": 257608,
            "byteLength": 12288,
            "target": 34962
        },
        {
            "buffer": 0,
            "byteOffset": 269896,
            "byteLength": 12288,
            "target": 34962
        },
        {
            "buffer": 0,
            "byteOffset": 282184,
            "byteLength": 8192,
            "target": 34962
        },
        {
            "buffer": 0,
            "byteOffset": 290376,
            "byteLength": 6864,
            "target": 34963
        },
        {
            "buffer": 0,
            "byteOffset": 297240,
            "byteLength": 12288,
            "target": 34962
        },
        {
            "buffer": 0,
            "byteOffset": 309528,
            "byteLength": 12288,
            "target": 34962
        },
        {
            "buffer": 0,
            "byteOffset": 321816,
            "byteLength": 8192,
            "target": 34962
        },
        {
            "buffer": 0,
            "byteOffset": 330008,
            "byteLength": 6864,
            "target": 34963
        }
    ],
    "materials": [
        {
            "name": "DefaultMaterial",
            "pbrMetallicRoughness": {
                "baseColorFactor": [
                    0.6000000238418579,
                    0.6000000238418579,
                    0.6000000238418579,
                    1.0
                ],
                "metallicFactor": 0.0
            }
        },
        {
            "name": "Material",
            "pbrMetallicRoughness": {
                "baseColorFactor": [
                    0.6000000238418579,
                    0.6000000238418579,
                    0.6000000238418579,
                    1.0
                ],
                "metallicFactor": 0.0
            }
        }
    ],
    "meshes": [
        {
            "name": "Cube",
            "primitives": [
                {
                    "mode": 4,
                    "material": 1,
                    "indices": 3,
                    "attributes": {
                        "POSITION": 0,
                        "NORMAL": 1,
                        "TEXCOORD_0": 2
                    }
                }
            ]
        },
        {
            "name": "Cylinder",
            "primitives": [
                {
                    "mode": 4,
                    "material": 1,
                    "indices": 7,
                    "attributes": {
                        "POSITION": 4,
                        "NORMAL": 5,
                        "TEXCOORD_0": 6
                    }
                }
            ]
        },
        {
            "name": "Cylinder.001",
            "primitives": [
                {
                    "mode": 4,
                    "material": 1,
                    "indices": 11,
                    "attributes": {
                        "POSITION": 8,
                        "NORMAL": 9,
                        "TEXCOORD_0": 10
                    }
                }
            ]
        },
        {
            "name": "Cylinder.002",
            "primitives": [
                {
                    "mode": 4,
                    "material": 1,
                    "indices": 15,
                    "attributes": {
                        "POSITION": 12,
                        "NORMAL": 13,
                        "TEXCOORD_0": 14
                    }
                }
            ]
        },
        {
            "name": "Cylinder.003",
            "primitives": [
                {
                    "mode": 4,
                    "material": 1,
                    "indices": 19,
                    "attributes": {
                        "POSITION": 16,
                        "NORMAL": 17,
                        "TEXCOORD_0": 18
                    }
                }
            ]
        },
        {
            "name": "Cylinder.004",
            "primitives": [
                {
                    "mode": 4,
                    "material": 1,
                    "indices": 23,
                    "attributes": {
                        "POSITION": 20,
                        "NORMAL": 21,
                        "TEXCOORD_0": 22
                    }
                }
            ]
        },
        {
            "name": "Cylinder.005",
            "primitives": [
                {
                    "mode": 4,
                    "material": 1,
                    "indices": 27,
                    "attributes": {
                        "POSITION": 24,
                        "NORMAL": 25,
                        "TEXCOORD_0": 26
                    }
                }
            ]
        }
    ],
    "nodes": [
        {
            "name": "input.obj",
            "children": [
                1,
                2,
                3,
                4,
                5,
                6,
                7
            ]
        },
        {
            "name": "Cube",
            "mesh": 0
        },
        {
            "name": "Cylinder",
            "mesh": 1
        },
        {
            "name": "Cylinder.001",
            "mesh": 2
        },
        {
            "name": "Cylinder.002",
            "mesh": 3
        },
        {
            "name": "Cylinder.003",
            "mesh": 4
        },
        {
            "name": "Cylinder.004",
            "mesh": 5
        },
        {
            "name": "Cylinder.005",
            "mesh": 6
        }
    ],
    "scenes": [
        {
            "nodes": [
                0
            ]
        }
    ],
    "scene": 0
}